<?xml version="1.0" encoding="utf-8"?>
<!-- Generator: Adobe Illustrator 25.2.0, SVG Export Plug-In . SVG Version: 6.00 Build 0)  -->
<svg version="1.1" id="Слой_1" xmlns="http://www.w3.org/2000/svg" xmlns:xlink="http://www.w3.org/1999/xlink" x="0px" y="0px"
	 viewBox="0 0 26 26" style="enable-background:new 0 0 26 26;" xml:space="preserve">
<style type="text/css">
	.st0{fill:#FFFFFF;}
	.st1{fill:#FE121A;}
</style>
<rect x="8.3" y="8.5" class="st0" width="9.3" height="9.3"/>
<path class="st1" d="M23.9,7.5c-0.1-0.5-0.4-0.9-0.7-1.3s-0.8-0.6-1.3-0.7C20.1,5,13,5,13,5S5.9,5,4.1,5.5C3.6,5.6,3.2,5.9,2.8,6.3
	S2.2,7,2.1,7.5C1.8,9.3,1.6,11.2,1.6,13c0,1.8,0.1,3.7,0.5,5.5c0.1,0.5,0.4,0.9,0.7,1.3c0.4,0.4,0.8,0.6,1.3,0.7C5.9,21,13,21,13,21
	s7.1,0,8.9-0.5c0.5-0.1,0.9-0.4,1.3-0.7c0.4-0.4,0.6-0.8,0.7-1.3c0.3-1.8,0.5-3.6,0.5-5.5C24.4,11.2,24.2,9.3,23.9,7.5z M10.7,16.4
	V9.6l5.9,3.4L10.7,16.4z"/>
</svg>
